<?xml version="1.0" standalone="no"?>
<!DOCTYPE svg PUBLIC "-//W3C//DTD SVG 20010904//EN"
 "http://www.w3.org/TR/2001/REC-SVG-20010904/DTD/svg10.dtd">
<svg version="1.0" xmlns="http://www.w3.org/2000/svg"
 width="803.000000pt" height="803.000000pt" viewBox="0 0 803.000000 803.000000"
 preserveAspectRatio="xMidYMid meet">
<metadata>
Created by potrace 1.11, written by Peter Selinger 2001-2013
</metadata>
<g transform="translate(0.000000,803.000000) scale(0.100000,-0.100000)"
fill="#000000" stroke="none">
<path d="M3808 7905 c-4 -5 -2 -15 4 -23 17 -19 -14 -42 -58 -42 -17 0 -67 -9
-110 -21 -44 -11 -104 -27 -134 -34 -31 -7 -69 -19 -85 -27 -45 -23 -127 -38
-208 -38 -55 0 -82 -5 -112 -21 -32 -18 -63 -23 -155 -27 -63 -2 -138 -10
-166 -17 -62 -16 -127 -55 -151 -91 -16 -25 -16 -27 3 -41 18 -13 18 -15 1
-24 -37 -21 -87 -101 -87 -139 0 -24 -22 -51 -124 -154 -69 -68 -135 -128
-148 -132 -13 -3 -41 -19 -64 -35 -22 -15 -67 -41 -100 -59 -83 -43 -187 -118
-266 -191 -68 -63 -92 -102 -45 -77 12 7 26 19 30 26 4 6 19 12 32 12 13 0 27
5 30 10 11 18 25 11 25 -12 l0 -22 15 20 c21 32 86 94 96 94 5 0 9 4 9 9 0 10
54 31 81 31 11 0 19 -6 19 -13 0 -13 -8 -19 -81 -59 -79 -44 -89 -52 -84 -68
5 -17 -60 -64 -75 -55 -6 4 -10 1 -10 -4 0 -6 -6 -11 -14 -11 -8 0 -24 -9 -37
-19 -20 -17 -22 -23 -12 -39 10 -17 8 -24 -13 -47 -18 -20 -22 -31 -15 -38 16
-16 14 -21 -24 -67 -19 -23 -35 -50 -35 -59 0 -9 -5 -22 -10 -27 -8 -8 -7 -14
3 -22 17 -14 10 -53 -28 -172 -22 -68 -25 -97 -29 -310 -10 -429 -8 -570 9
-640 8 -36 20 -94 26 -130 13 -90 47 -255 58 -282 18 -50 32 -162 40 -335 5
-101 13 -188 19 -195 18 -23 82 -227 83 -266 1 -36 1 -37 11 -9 15 41 25 33
32 -25 11 -92 12 -122 5 -160 -3 -21 -3 -39 0 -40 18 -8 62 -102 59 -125 -4
-33 19 -42 30 -12 l9 22 14 -21 c19 -27 44 -14 34 17 -5 16 -2 26 10 35 13 9
18 34 22 111 3 55 4 111 3 125 -8 90 8 301 26 354 8 21 14 47 14 58 0 20 15
73 47 168 8 25 17 72 20 105 3 33 12 74 21 90 8 17 17 60 18 97 1 37 5 72 9
78 6 9 15 52 31 145 3 17 6 44 7 60 1 17 9 44 18 60 9 17 14 36 12 43 -3 6 1
12 7 12 7 0 14 -9 17 -19 3 -12 11 -17 20 -14 10 4 11 9 4 16 -16 16 -13 37 4
37 8 0 15 -7 15 -15 0 -18 29 -65 40 -65 4 0 10 9 13 20 3 12 14 20 26 20 12
0 20 6 19 13 -2 7 10 13 30 15 22 2 38 12 50 30 23 36 62 67 86 67 10 0 24 9
30 20 6 10 17 25 24 33 6 7 12 19 12 26 0 7 11 27 25 46 14 19 25 40 25 48 0
9 12 31 28 51 15 20 36 52 47 72 11 20 35 58 53 85 22 34 31 57 28 75 -3 17 1
29 15 37 12 8 19 23 19 44 0 31 0 31 -20 12 -12 -10 -28 -27 -38 -36 -9 -10
-23 -18 -31 -18 -11 0 -10 4 4 20 10 11 15 26 11 36 -3 9 -2 22 2 28 19 24 23
66 7 72 -18 7 -20 30 -2 41 6 4 12 17 12 28 0 13 8 21 23 23 15 2 22 -2 22
-13 0 -11 15 -1 46 29 46 46 84 73 84 60 0 -4 -12 -27 -26 -51 -14 -25 -24
-46 -22 -48 5 -5 32 19 44 40 15 27 38 25 42 -2 4 -26 22 -29 52 -10 17 10 22
9 30 -3 8 -12 14 -12 45 3 20 9 42 17 51 17 8 0 17 7 20 15 4 8 10 13 14 10
11 -7 103 40 120 60 7 8 20 15 29 15 9 0 24 14 33 30 13 23 24 30 47 30 21 0
32 6 36 20 9 28 37 25 66 -6 18 -19 30 -24 51 -20 31 6 45 -8 28 -29 -18 -22
-3 -18 22 5 14 13 25 17 32 10 12 -12 97 0 114 17 7 7 24 13 37 13 12 0 25 7
29 15 3 8 15 15 27 15 13 0 31 7 40 16 13 11 36 16 74 16 50 0 56 2 72 29 12
19 25 29 41 29 26 0 93 52 104 82 4 10 11 18 16 18 19 0 79 -29 92 -44 7 -9
18 -16 24 -16 24 0 47 -25 40 -43 -7 -18 -34 -24 -34 -7 0 6 -7 10 -16 10 -10
0 -14 6 -10 15 3 8 1 15 -4 15 -6 0 -10 -9 -10 -19 0 -11 -3 -26 -6 -35 -9
-23 54 -35 194 -39 130 -4 152 -12 152 -53 0 -19 9 -28 38 -40 111 -47 127
-58 155 -112 27 -49 31 -52 63 -50 20 1 39 -3 43 -10 11 -18 81 -28 81 -13 0
7 5 9 10 6 6 -3 10 -22 10 -41 0 -28 5 -36 26 -44 19 -7 31 -7 40 1 11 9 16 6
23 -12 9 -23 10 -23 10 -2 1 12 6 23 13 25 22 8 167 -100 180 -133 4 -11 17
-19 28 -19 23 0 24 -4 9 -31 -9 -17 -7 -21 11 -26 15 -4 20 -11 17 -25 -4 -13
1 -22 17 -28 46 -17 51 -34 51 -182 0 -105 3 -141 13 -147 10 -6 12 -23 9 -59
-4 -40 -2 -52 10 -57 14 -5 14 -7 0 -23 -15 -17 -15 -23 8 -77 14 -33 25 -73
25 -90 0 -16 7 -72 15 -123 16 -101 29 -211 46 -392 6 -65 18 -134 28 -160 10
-25 26 -94 35 -155 10 -60 24 -148 32 -195 8 -47 14 -100 14 -117 0 -20 5 -32
12 -30 8 1 11 -12 9 -42 -2 -40 -1 -43 18 -38 17 4 20 -1 23 -29 5 -51 22 -46
30 10 4 27 16 76 27 110 11 33 23 82 26 108 4 26 12 54 19 61 22 22 27 52 11
73 -18 24 -19 44 -1 44 8 0 22 -20 32 -45 9 -25 20 -45 24 -45 19 0 34 36 33
81 -1 40 2 49 16 47 11 -2 16 4 16 22 0 15 7 26 17 28 9 2 23 17 32 35 l16 32
0 -52 c0 -29 3 -53 8 -53 4 1 17 16 29 35 16 26 24 62 33 152 7 65 15 122 18
128 9 13 20 98 31 225 18 198 47 332 94 425 13 27 20 62 21 115 2 67 5 78 29
102 23 23 27 36 28 85 0 32 2 83 4 113 2 41 -6 86 -31 175 -20 66 -40 128 -45
138 -6 11 -8 45 -4 80 5 55 3 69 -23 122 -16 33 -46 80 -66 105 -20 25 -49 61
-65 80 -36 45 -111 182 -111 203 0 9 -24 32 -52 50 -51 32 -118 99 -118 116 0
16 -71 115 -106 149 -19 18 -34 37 -34 42 0 5 -18 17 -40 26 -25 11 -57 40
-86 76 -25 32 -51 58 -59 58 -7 0 -34 31 -59 68 -57 86 -159 173 -256 218 -41
19 -115 55 -164 80 -48 26 -102 50 -120 55 -93 24 -109 34 -158 96 -44 56 -56
65 -106 79 -32 9 -100 30 -152 47 -59 19 -112 30 -139 28 -36 -2 -65 9 -166
58 -137 68 -192 88 -256 96 -24 3 -63 12 -87 20 -49 17 -203 31 -214 20z m249
-251 c-3 -3 -12 -4 -19 -1 -8 3 -5 6 6 6 11 1 17 -2 13 -5z m-977 -384 c0 -5
-9 -10 -21 -10 -11 0 -17 5 -14 10 3 6 13 10 21 10 8 0 14 -4 14 -10z m110
-30 c0 -5 -9 -10 -21 -10 -11 0 -17 5 -14 10 3 6 13 10 21 10 8 0 14 -4 14
-10z m105 -10 c8 -13 -25 -13 -45 0 -12 8 -9 10 12 10 15 0 30 -4 33 -10z
m125 -336 c7 -7 1 -10 -22 -10 -18 0 -41 -4 -52 -9 -16 -7 -17 -5 -8 11 11 21
64 26 82 8z m510 -84 c0 -5 -5 -10 -11 -10 -5 0 -7 5 -4 10 3 6 8 10 11 10 2
0 4 -4 4 -10z m-1980 -20 c-6 -11 -15 -20 -20 -20 -14 0 -12 27 3 33 23 10 28
7 17 -13z m1510 16 c0 -2 3 -11 6 -20 4 -12 0 -16 -15 -16 -12 0 -21 6 -21 14
0 8 -6 17 -12 19 -7 3 -1 6 15 6 15 1 27 -1 27 -3z m430 -21 c-7 -8 -25 -15
-41 -15 -15 0 -31 -4 -34 -10 -3 -5 -13 -10 -21 -10 -12 0 -11 4 3 19 22 22
39 29 77 30 24 1 27 -1 16 -14z m-270 -63 c0 -5 -17 -9 -37 -10 -21 0 -67 -3
-103 -6 -60 -5 -63 -4 -40 9 27 16 180 21 180 7z m105 -2 c-3 -5 -11 -10 -16
-10 -6 0 -7 5 -4 10 3 6 11 10 16 10 6 0 7 -4 4 -10z m-105 -65 c-14 -17 -40
-20 -40 -6 0 5 10 12 23 14 12 2 24 5 26 6 2 0 -2 -6 -9 -14z m-60 -59 c0 -11
-19 -15 -25 -6 -3 5 1 10 9 10 9 0 16 -2 16 -4z m112 -42 c27 -14 30 -18 16
-28 -8 -6 -17 -15 -19 -21 -2 -5 -15 -9 -29 -7 l-25 3 28 -21 c29 -23 36 -50
13 -50 -33 0 -137 72 -124 86 8 7 40 8 58 0 8 -3 22 -2 30 4 12 7 12 12 2 22
-30 30 0 38 50 12z m1031 -79 c1 -5 -16 -11 -38 -13 -39 -2 -40 -2 -15 12 28
16 50 16 53 1z m-1199 -23 c43 -29 60 -57 29 -45 -25 9 -93 56 -93 66 0 14 26
6 64 -21z m1071 -28 c13 -5 14 -8 3 -15 -19 -13 -28 -11 -28 6 0 17 2 18 25 9z
m-1635 -47 c0 -5 -28 -38 -77 -90 -37 -41 -53 -43 -32 -6 20 38 109 116 109
96z m1240 -21 c0 -3 -4 -8 -10 -11 -5 -3 -10 -1 -10 4 0 6 5 11 10 11 6 0 10
-2 10 -4z m-1185 -163 c-4 -10 -9 -29 -10 -43 -3 -36 -3 -35 -30 -64 -27 -29
-72 -35 -77 -10 -2 8 22 42 52 74 56 59 78 74 65 43z m3389 -139 c5 -14 4 -15
-9 -4 -17 14 -19 20 -6 20 5 0 12 -7 15 -16z m-3524 -19 c0 -19 -20 -29 -32
-17 -8 8 -7 16 2 26 14 17 30 12 30 -9z m2890 -464 c0 -55 -30 -92 -44 -55
-10 26 4 64 25 64 10 0 19 -4 19 -9z m83 -77 c9 -9 -4 -35 -14 -28 -5 3 -9 12
-9 20 0 14 12 19 23 8z m137 -1429 c0 -40 -30 -65 -49 -41 -8 10 -8 16 4 26 8
7 15 21 15 31 0 11 7 19 15 19 10 0 15 -11 15 -35z"/>
<path d="M1768 6623 c6 -2 18 -2 25 0 6 3 1 5 -13 5 -14 0 -19 -2 -12 -5z"/>
<path d="M1690 6359 c0 -5 5 -7 10 -4 6 3 10 8 10 11 0 2 -4 4 -10 4 -5 0 -10
-5 -10 -11z"/>
<path d="M2626 5212 c-4 -13 -5 -26 -2 -29 10 -11 18 4 14 29 l-4 23 -8 -23z"/>
<path d="M2342 4960 c0 -19 2 -27 5 -17 2 9 2 25 0 35 -3 9 -5 1 -5 -18z"/>
<path d="M2450 4679 c-11 -8 -12 -12 -2 -16 7 -2 19 -11 27 -20 13 -13 16 -12
22 4 3 10 8 22 11 27 3 5 0 6 -6 2 -6 -3 -13 -2 -17 4 -8 13 -16 12 -35 -1z"/>
<path d="M4665 4679 c-150 -20 -257 -47 -271 -70 -3 -5 -16 -9 -30 -9 -14 0
-23 -4 -20 -8 3 -5 -10 -16 -29 -25 -33 -16 -34 -18 -34 -75 1 -55 3 -60 36
-87 34 -26 39 -27 109 -21 73 6 85 1 63 -21 -9 -9 -2 -13 26 -19 34 -6 40 -4
61 23 13 17 37 36 53 43 28 11 32 10 55 -16 14 -16 26 -32 26 -36 0 -19 18 -6
24 17 6 23 8 24 21 11 8 -8 28 -17 45 -21 16 -4 30 -11 30 -16 0 -14 32 -10
75 11 22 11 46 19 53 20 17 0 15 -19 -3 -26 -24 -9 -17 -24 10 -24 17 0 29 8
37 25 14 31 30 31 83 0 41 -23 125 -49 134 -40 9 10 -25 37 -93 75 -39 22 -82
49 -96 60 l-25 20 35 -6 c69 -11 131 -39 192 -85 35 -26 64 -46 66 -44 2 2 -4
15 -14 30 -21 32 -149 97 -225 114 -119 27 -175 51 -199 83 -15 21 -19 33 -12
36 18 6 14 24 -12 55 -26 32 -71 39 -171 26z"/>
<path d="M3074 4654 c-14 -10 -58 -17 -130 -20 -60 -3 -117 -6 -126 -7 -10 -1
-18 -6 -18 -12 0 -7 22 -10 58 -10 31 1 65 -1 75 -5 17 -5 16 -7 -5 -17 -13
-6 -31 -14 -40 -17 -11 -3 -18 -15 -18 -31 0 -20 -5 -25 -26 -25 -47 0 -209
-32 -231 -46 -14 -9 -24 -10 -28 -4 -9 15 -25 12 -25 -5 0 -12 -10 -15 -40
-13 -24 2 -40 8 -40 16 0 7 -7 15 -16 19 -15 6 -15 8 2 20 25 18 34 16 34 -7
0 -11 5 -20 10 -20 13 0 1 52 -14 62 -6 4 -21 8 -34 8 -12 0 -25 7 -28 15 -4
8 -13 15 -21 15 -26 0 -8 25 22 30 16 3 30 11 33 18 5 17 -78 15 -102 -3 -11
-8 -29 -12 -43 -9 -20 5 -23 2 -23 -21 0 -36 52 -85 91 -85 29 0 42 -24 17
-32 -9 -3 -8 -10 5 -23 12 -12 16 -25 12 -39 -17 -54 -17 -66 0 -72 9 -4 21
-17 26 -30 9 -24 40 -31 119 -26 13 1 32 -6 42 -15 17 -15 18 -15 18 0 0 24
25 21 42 -4 14 -21 14 -21 41 15 16 20 35 36 43 36 8 0 31 16 50 35 37 37 46
37 77 -2 13 -16 28 -23 50 -22 18 0 26 3 20 6 -7 2 -13 11 -13 19 0 18 0 18
41 -3 44 -22 174 -21 199 2 20 18 36 19 43 2 10 -27 108 -52 194 -48 61 2 87
-1 105 -13 31 -20 76 -17 83 5 3 10 5 37 5 61 -1 24 1 62 5 85 7 38 5 43 -29
76 -20 20 -47 39 -59 42 -12 4 -65 28 -117 53 -92 45 -98 46 -187 47 -50 0
-95 3 -99 8 -11 10 -26 8 -50 -9z"/>
<path d="M2686 4222 c-4 -6 -13 -9 -21 -5 -10 3 -15 -1 -15 -12 0 -11 5 -15
15 -11 9 3 18 -1 21 -9 5 -13 34 -10 34 4 0 17 -27 44 -34 33z"/>
<path d="M6238 4068 c-7 -16 7 -46 17 -37 3 4 2 16 -3 29 -7 18 -10 20 -14 8z"/>
<path d="M7894 4048 c-3 -4 -27 -7 -54 -6 -38 2 -52 -1 -67 -18 -10 -11 -29
-28 -42 -37 -14 -9 -26 -27 -28 -39 -2 -12 -8 -25 -14 -29 -7 -4 -9 -22 -4
-48 5 -33 4 -41 -8 -41 -9 0 -19 -9 -22 -20 -3 -11 -14 -20 -23 -20 -13 0 -12
-3 6 -16 30 -21 28 -37 -9 -53 -26 -11 -33 -11 -40 0 -4 7 -4 18 2 25 6 8 4
14 -7 18 -25 10 -72 7 -79 -4 -10 -16 14 -40 39 -40 19 -1 19 -2 3 -11 -29
-17 -9 -29 47 -29 29 0 67 -5 85 -11 29 -10 31 -14 26 -40 -9 -42 2 -71 26
-64 16 5 19 1 19 -30 0 -20 -5 -45 -10 -56 -15 -27 1 -52 44 -69 38 -15 45
-27 21 -36 -8 -4 -15 -10 -15 -15 0 -12 53 -7 62 6 4 5 10 7 13 3 3 -3 -1 -13
-10 -21 -17 -18 -19 -27 -6 -27 22 0 69 -57 69 -84 0 -16 5 -32 12 -36 21 -13
0 -32 -27 -25 -19 4 -31 -1 -51 -23 -15 -16 -38 -33 -51 -37 -20 -6 -22 -4
-16 14 4 12 2 21 -4 21 -6 0 -11 -9 -11 -21 0 -18 -4 -20 -32 -14 -18 4 -43
13 -55 21 -29 18 -43 18 -43 -1 0 -19 -15 -19 -46 1 -17 12 -36 15 -64 10 -25
-4 -40 -2 -40 4 0 14 -53 13 -68 -2 -9 -9 -17 -9 -36 2 -22 11 -31 10 -70 -9
-31 -14 -48 -29 -52 -46 -3 -14 -19 -34 -35 -46 -42 -30 -34 -79 13 -79 23 0
23 -26 0 -70 -23 -43 -18 -70 12 -70 12 0 40 -8 62 -19 53 -25 120 -34 238
-32 91 2 103 0 152 -26 29 -15 55 -34 58 -43 6 -16 27 -52 37 -60 3 -3 5 -26
5 -52 -1 -38 -6 -50 -28 -68 -16 -12 -28 -28 -28 -36 0 -9 -11 -14 -35 -14
-20 0 -52 -7 -72 -15 -19 -8 -48 -15 -63 -15 -15 0 -38 -10 -51 -23 -23 -23
-27 -23 -123 -13 -74 7 -103 6 -117 -3 -13 -7 -25 -8 -36 -2 -18 10 -63 -5
-63 -21 0 -5 5 -6 10 -3 6 3 10 1 10 -4 0 -6 -4 -11 -10 -11 -11 0 -11 -65 1
-97 5 -13 5 -23 1 -23 -4 0 -14 -13 -23 -29 -10 -17 -25 -28 -35 -28 -28 3
-23 -27 4 -31 15 -2 22 -9 20 -20 -4 -19 -48 -30 -48 -12 0 6 -11 -2 -25 -18
-14 -17 -25 -34 -25 -40 0 -5 -7 -12 -15 -16 -8 -3 -15 -12 -15 -21 0 -9 -6
-15 -14 -13 -8 2 -28 -16 -45 -39 -17 -23 -45 -50 -63 -59 -18 -9 -35 -20 -38
-23 -3 -4 -25 -15 -50 -26 -25 -11 -47 -22 -50 -26 -3 -3 -14 -8 -25 -12 -68
-20 -100 -39 -150 -90 -53 -55 -143 -107 -185 -107 -9 0 -25 -9 -35 -20 -10
-11 -30 -26 -44 -33 -14 -7 -35 -18 -46 -24 -11 -7 -41 -21 -67 -33 -73 -33
-89 -59 -118 -191 -13 -59 -6 -83 42 -131 28 -28 50 -90 44 -125 -2 -18 -17
-59 -31 -92 -30 -66 -30 -65 38 -153 15 -21 36 -60 46 -88 19 -54 36 -78 47
-67 4 4 13 39 21 79 7 39 20 79 28 88 8 9 15 24 15 33 0 9 4 18 9 21 5 3 12
18 16 33 3 16 18 43 32 61 22 30 24 37 14 80 -9 40 -8 49 6 59 9 7 23 13 30
13 7 0 13 5 13 10 0 6 -7 10 -15 10 -25 0 -29 28 -10 70 14 32 24 40 59 48 50
12 126 5 146 -14 9 -7 25 -11 36 -8 16 4 25 -2 37 -28 9 -18 17 -28 17 -23 0
6 7 2 15 -9 18 -23 105 -66 122 -59 7 3 13 12 13 20 0 13 10 15 68 8 76 -8 70
-8 137 4 133 23 198 30 223 24 15 -4 35 -6 45 -4 11 1 17 -4 17 -18 0 -12 4
-21 9 -21 23 0 36 -153 18 -205 -18 -51 -8 -128 20 -156 18 -18 36 -21 169
-24 130 -4 157 -2 209 16 33 11 64 25 69 30 6 5 30 9 55 9 26 0 56 3 69 6 l22
6 0 1610 0 1609 -65 -2 c-36 -1 -68 -6 -71 -11z m-74 -399 c0 -16 -4 -37 -9
-47 -5 -9 -12 -25 -15 -35 -10 -32 -24 -9 -24 40 1 47 22 88 39 77 5 -3 9 -18
9 -35z m-210 -1549 c-20 -12 -33 -1 -19 16 9 11 15 12 23 4 8 -8 7 -13 -4 -20z
m-94 -682 c-3 -13 -5 -26 -5 -30 -1 -5 -9 -8 -18 -8 -13 0 -18 8 -18 30 0 24
4 30 22 30 18 0 22 -5 19 -22z"/>
<path d="M6888 4033 c-21 -5 -25 -33 -5 -33 7 0 20 9 30 20 17 20 12 23 -25
13z"/>
<path d="M65 3985 c-12 -26 -14 -58 -10 -127 8 -123 8 -238 1 -307 -11 -100
18 -124 124 -101 30 6 78 16 107 22 39 8 67 8 110 -1 56 -12 61 -12 121 15 62
29 78 50 45 60 -47 15 -67 32 -84 71 -14 34 -22 40 -38 36 -12 -3 -21 -9 -21
-14 0 -5 -21 -19 -46 -30 -40 -19 -50 -20 -85 -10 -21 7 -46 22 -54 35 -10 15
-23 22 -33 19 -15 -3 -18 5 -20 61 -2 47 1 72 12 88 26 36 18 111 -18 188 -9
20 -20 25 -54 28 -40 3 -43 1 -57 -33z"/>
<path d="M6205 3954 c-7 -47 -2 -64 20 -64 16 0 31 -76 17 -93 -5 -7 -12 -25
-16 -41 -6 -24 -4 -27 9 -22 9 3 25 1 36 -5 16 -8 18 -13 9 -24 -15 -19 40
-44 101 -46 56 -2 64 2 85 46 19 41 39 45 48 10 12 -47 65 -19 66 34 0 16 4
21 15 17 8 -3 15 -1 15 4 0 6 -9 10 -19 10 -12 0 -23 11 -29 29 -8 22 -18 30
-48 36 -21 3 -50 15 -64 24 -41 29 -50 33 -50 22 0 -6 8 -11 18 -11 14 0 15
-2 2 -10 -11 -7 -20 -4 -35 15 -12 14 -28 25 -37 25 -9 0 -23 6 -30 13 -7 8
-23 19 -36 26 -12 6 -22 18 -22 26 0 8 -3 15 -7 16 -5 0 -15 2 -25 4 -12 2
-18 -7 -23 -41z"/>
<path d="M7163 3946 c-49 -15 -44 -42 10 -50 31 -5 45 -13 52 -29 10 -23 42
-31 38 -9 -2 6 2 12 7 12 6 0 10 -4 10 -8 0 -5 15 -8 33 -8 17 1 51 -3 75 -7
36 -6 42 -5 43 10 0 11 3 13 6 6 7 -18 53 -16 53 2 0 7 -8 18 -17 24 -14 8
-15 12 -4 25 11 13 11 17 -2 22 -26 10 -52 0 -53 -21 -2 -38 -4 -45 -14 -45
-5 0 -10 6 -10 13 0 19 -37 47 -63 47 -13 0 -27 3 -31 8 -4 4 -12 8 -17 8 -5
1 -10 3 -11 4 -9 7 -78 5 -105 -4z m90 -43 c-7 -2 -19 -2 -25 0 -7 3 -2 5 12
5 14 0 19 -2 13 -5z"/>
<path d="M7095 3910 c3 -5 11 -10 16 -10 6 0 7 5 4 10 -3 6 -11 10 -16 10 -6
0 -7 -4 -4 -10z"/>
<path d="M7646 3911 c-3 -5 1 -14 9 -21 13 -10 15 -9 15 9 0 21 -14 28 -24 12z"/>
<path d="M6214 3831 c-4 -20 -11 -28 -20 -24 -11 4 -14 -6 -14 -41 0 -25 0
-49 -1 -53 0 -4 5 -9 11 -11 8 -3 11 6 9 24 -2 16 2 39 9 51 23 43 32 72 22
78 -6 4 -13 -7 -16 -24z"/>
<path d="M7520 3829 c0 -12 5 -19 12 -17 18 6 20 25 3 31 -10 5 -15 0 -15 -14z"/>
<path d="M7265 3824 c-23 -17 -7 -24 51 -24 52 0 76 12 53 26 -19 11 -87 10
-104 -2z"/>
<path d="M7404 3819 c-3 -6 0 -15 7 -20 22 -14 29 -11 29 11 0 21 -24 27 -36
9z"/>
<path d="M1960 3623 c0 -22 18 -43 38 -43 9 0 12 9 10 28 -4 33 -48 47 -48 15z"/>
<path d="M7656 3575 c-9 -24 -7 -78 3 -94 6 -9 10 4 12 39 4 54 -4 83 -15 55z"/>
<path d="M781 3556 c-16 -19 -8 -46 13 -46 20 0 29 31 13 47 -12 12 -16 12
-26 -1z"/>
<path d="M7602 3535 c-1 -19 3 -25 18 -25 15 0 20 7 20 25 0 17 -5 25 -18 25
-12 0 -18 -8 -20 -25z"/>
<path d="M3515 3210 c-10 -11 -26 -20 -37 -20 -23 0 -23 -11 1 -41 10 -13 20
-33 22 -43 4 -20 14 -27 68 -47 19 -7 54 -33 79 -58 41 -41 46 -43 58 -27 12
18 14 18 37 0 13 -11 22 -25 19 -32 -2 -7 5 -12 17 -12 30 0 36 3 35 18 -1 6
8 12 20 12 77 1 86 36 14 57 -32 9 -55 24 -73 47 -14 18 -25 35 -25 38 0 3
-21 27 -48 55 -68 71 -149 94 -187 53z"/>
<path d="M4153 3199 c-40 -20 -125 -109 -104 -109 5 0 16 8 23 18 21 29 53 42
107 42 62 0 81 7 81 31 0 18 -27 39 -52 39 -7 0 -32 -9 -55 -21z"/>
<path d="M410 3188 c-29 -12 -217 -16 -272 -5 -31 6 -41 4 -59 -14 -18 -18
-20 -28 -14 -75 11 -90 8 -199 -8 -256 -11 -40 -14 -103 -12 -258 2 -113 3
-211 4 -217 1 -7 12 -20 25 -28 22 -15 32 -15 108 0 45 9 110 18 143 20 88 7
120 14 166 34 l41 19 -37 28 c-29 22 -34 30 -23 38 7 6 13 29 13 51 0 29 5 42
20 50 11 6 21 17 23 25 8 34 65 90 103 100 57 16 89 -7 88 -64 0 -68 -30 -145
-71 -187 -42 -42 -45 -49 -23 -49 9 0 42 -11 75 -25 60 -25 124 -33 134 -16 3
5 18 12 33 16 15 3 34 12 42 18 7 6 28 10 46 8 62 -5 53 33 -10 47 -30 6 -39
13 -37 25 2 10 -7 22 -22 28 -32 15 -52 77 -48 152 2 42 7 57 17 57 8 0 15 4
15 10 0 5 11 12 25 16 14 3 25 10 25 14 0 4 11 11 25 14 29 7 33 24 8 32 -10
3 -26 10 -35 15 -10 5 -31 9 -47 9 -21 0 -38 10 -60 35 -36 41 -43 43 -56 13
-30 -65 -116 -79 -217 -35 -21 9 -38 23 -38 31 0 8 -8 22 -17 31 -30 30 -16
125 24 162 12 12 40 25 61 28 20 3 45 10 54 16 27 14 97 -6 124 -34 33 -36 61
-25 86 31 18 41 19 46 4 60 -12 12 -30 15 -69 13 -130 -9 -236 -2 -292 19 -31
12 -33 12 -65 -2z m-41 -139 c11 -10 25 -37 31 -59 6 -22 15 -38 20 -35 17 11
11 -5 -16 -41 -15 -19 -32 -34 -39 -34 -7 0 -15 -7 -19 -15 -6 -17 -37 -20
-64 -7 -9 5 -30 15 -47 23 -25 12 -30 21 -33 58 -2 29 2 47 12 54 8 7 16 21
18 32 2 12 13 21 27 23 13 2 30 10 37 17 16 16 45 10 73 -16z m-24 -508 c3 -5
1 -12 -5 -16 -5 -3 -10 1 -10 9 0 18 6 21 15 7z"/>
<path d="M2085 3170 c3 -5 10 -10 16 -10 5 0 9 5 9 10 0 6 -7 10 -16 10 -8 0
-12 -4 -9 -10z"/>
<path d="M6990 3019 c0 -18 4 -28 10 -24 6 4 8 10 5 15 -3 5 -1 11 5 15 15 9
12 25 -5 25 -10 0 -15 -10 -15 -31z"/>
<path d="M3954 3030 c-31 -12 -39 -30 -15 -30 11 0 25 9 31 20 6 11 9 20 8 19
-2 0 -13 -4 -24 -9z"/>
<path d="M3845 2940 c-3 -5 3 -10 15 -10 12 0 18 5 15 10 -3 6 -10 10 -15 10
-5 0 -12 -4 -15 -10z"/>
<path d="M1087 2835 c-26 -20 -47 -40 -47 -45 0 -5 12 -22 26 -39 33 -40 76
-42 100 -6 9 14 23 25 30 25 24 0 16 20 -24 61 l-39 39 -46 -35z"/>
<path d="M1437 2833 c-4 -3 -7 -19 -7 -35 0 -21 5 -28 19 -28 25 0 33 35 12
54 -10 9 -21 13 -24 9z"/>
<path d="M2094 2688 c-3 -4 -16 -8 -30 -8 -46 0 -64 -17 -64 -61 0 -22 -7 -53
-15 -70 -9 -16 -13 -34 -10 -39 3 -5 1 -18 -5 -29 -7 -14 -7 -34 0 -65 8 -37
5 -66 -15 -162 -14 -64 -30 -125 -35 -135 -6 -10 -12 -106 -15 -214 -4 -160
-2 -197 9 -201 11 -4 12 -12 3 -40 -8 -26 -16 -34 -33 -34 -13 0 -25 -4 -28
-9 -3 -5 -17 -12 -31 -15 -14 -4 -49 -17 -78 -30 -74 -34 -120 -41 -136 -22
-8 9 -22 16 -32 16 -17 0 -39 49 -39 87 0 7 -12 33 -26 59 -25 45 -26 54 -26
189 0 79 -4 149 -9 156 -6 11 -48 15 -181 17 -95 2 -182 2 -193 1 -11 -1 -99
-2 -195 -4 -97 -1 -191 -7 -210 -14 -19 -6 -58 -11 -86 -11 -34 0 -56 -5 -64
-15 -16 -19 -30 -19 -66 0 -39 20 -73 19 -125 -5 -24 -11 -56 -20 -71 -20 -16
0 -28 -5 -28 -11 0 -7 11 -9 30 -6 35 8 99 -28 100 -55 0 -31 39 -20 76 21 34
36 38 38 70 29 18 -5 44 -8 56 -7 42 4 88 -13 108 -41 18 -25 21 -47 20 -132
-1 -16 -1 -35 -1 -43 0 -31 -6 -71 -14 -89 -5 -12 -2 -28 8 -46 9 -15 14 -30
10 -34 -14 -13 44 -5 65 10 12 8 39 16 60 16 39 0 176 -23 252 -42 25 -7 68
-12 95 -11 32 1 75 -8 120 -25 39 -15 87 -27 107 -28 34 0 37 -2 32 -23 -5
-17 -2 -23 11 -23 12 0 15 -5 11 -16 -3 -9 -6 -22 -6 -31 0 -10 -6 -13 -16 -9
-9 3 -12 2 -9 -5 8 -12 -169 -195 -205 -212 -18 -9 -24 -19 -22 -37 2 -20 1
-22 -8 -10 -8 12 -12 12 -18 2 -15 -22 -50 -23 -57 -1 -4 11 -11 17 -16 13 -5
-3 -6 -11 -2 -17 4 -7 0 -6 -10 2 -18 14 -39 8 -127 -39 -42 -22 -135 -42
-210 -45 -30 -1 -68 -3 -84 -3 -22 -2 -44 -17 -80 -54 -69 -72 -103 -86 -212
-85 -64 0 -98 -4 -121 -16 -28 -15 -42 -15 -114 -5 -72 10 -88 16 -121 46
l-38 34 0 -107 c0 -106 0 -107 23 -101 12 3 72 10 134 16 93 8 121 8 170 -5
35 -10 94 -15 151 -14 58 1 98 -3 105 -10 6 -6 30 -11 52 -11 41 0 42 -1 40
-34 0 -24 -12 -47 -38 -77 -21 -24 -55 -67 -77 -96 -41 -54 -55 -61 -164 -82
-141 -28 -239 -41 -314 -43 l-82 -2 0 -208 0 -208 956 0 956 0 -23 37 c-29 50
-44 80 -64 128 -9 22 -36 78 -60 125 -80 159 -118 268 -119 343 -1 37 -4 67
-8 67 -5 0 -8 -7 -8 -16 0 -8 -4 -12 -10 -9 -20 12 -11 71 15 95 24 23 26 23
39 5 13 -18 14 -18 25 3 6 11 11 28 11 36 0 27 49 20 62 -9 13 -29 15 -30 61
-10 20 8 62 15 94 15 32 0 65 5 73 10 10 6 20 4 33 -8 23 -21 30 -11 53 78 9
36 31 94 47 130 17 36 31 83 32 105 3 51 4 54 15 30 6 -13 7 -5 3 25 -3 28 1
62 11 90 9 25 16 55 16 67 0 17 7 22 33 25 24 2 33 8 35 26 4 28 -5 28 -29 0
l-18 -23 -1 33 c0 17 3 32 8 32 4 0 8 10 9 23 3 44 15 112 23 132 10 24 23 89
25 130 1 17 5 37 9 46 4 9 0 25 -11 38 -16 20 -22 21 -48 11 -26 -10 -31 -8
-47 12 -16 19 -18 34 -12 88 8 79 14 98 49 133 27 26 54 32 86 19 20 -8 109
-136 109 -157 0 -7 5 -17 10 -20 8 -5 7 -12 -2 -22 -7 -9 -12 -24 -10 -35 2
-10 -4 -21 -12 -24 -9 -3 -16 -14 -17 -23 0 -9 -5 -4 -11 12 -10 28 -24 36
-26 15 -6 -61 -9 -152 -5 -169 7 -24 28 -20 28 7 0 22 32 23 80 3 28 -12 29
-13 8 -16 -36 -7 -32 -51 5 -55 21 -2 28 -9 30 -30 3 -26 -5 -33 -31 -29 -4 1
-10 -6 -13 -14 -4 -8 -12 -15 -20 -15 -8 0 -14 -10 -14 -25 0 -17 4 -23 14
-19 15 6 36 -42 36 -82 0 -13 4 -24 9 -24 7 0 43 -105 45 -132 1 -4 7 -13 14
-19 14 -15 16 -39 3 -39 -4 0 -6 -12 -3 -26 3 -18 8 -22 15 -15 6 6 24 11 40
11 25 0 28 -3 24 -21 -7 -26 11 -67 32 -72 9 -3 5 -5 -9 -6 -15 -1 -30 7 -38
19 -7 11 -23 20 -37 20 -28 0 -44 -25 -27 -42 8 -8 6 -18 -5 -34 -14 -22 -14
-24 8 -33 13 -5 31 -18 39 -30 8 -12 20 -21 26 -21 6 0 31 -25 55 -55 24 -30
51 -54 60 -55 17 0 59 -40 59 -56 0 -5 9 -15 20 -22 30 -18 25 -42 -7 -42
l-28 0 33 -31 c17 -16 32 -37 32 -45 0 -8 13 -20 29 -25 16 -6 31 -18 33 -27
12 -44 220 -73 283 -40 17 8 48 20 70 26 45 12 332 107 385 128 19 7 82 16
140 20 58 3 125 10 150 16 25 5 70 13 100 18 98 15 165 31 180 44 8 7 49 29
91 49 42 20 101 56 130 80 30 24 79 62 110 85 31 22 90 71 131 109 41 37 108
97 149 132 244 209 413 380 426 430 3 13 14 32 24 42 20 20 35 66 25 76 -8 9
-63 -23 -98 -56 -38 -38 -142 -122 -228 -186 -41 -30 -81 -61 -89 -68 -8 -6
-20 -14 -25 -17 -6 -3 -47 -27 -91 -53 -117 -70 -99 -61 -200 -100 -35 -14
-110 -27 -155 -29 -8 0 -50 5 -94 10 -48 6 -89 7 -105 1 -23 -8 -86 -7 -246 3
-27 2 -56 7 -63 11 -7 5 -48 10 -92 11 -44 2 -85 8 -92 14 -8 6 -58 12 -113
15 -60 2 -115 10 -137 20 -21 9 -57 19 -82 22 -25 4 -47 13 -50 20 -3 8 -25
23 -50 34 -25 11 -46 25 -46 30 0 6 -8 11 -19 11 -10 0 -24 7 -31 15 -7 8 -30
19 -51 25 -21 6 -41 18 -44 28 -6 17 -93 88 -120 99 -8 3 -15 11 -15 17 0 13
-41 36 -64 36 -7 0 -18 11 -24 24 -6 15 -23 27 -41 31 -17 4 -31 13 -31 21 0
9 -11 14 -30 14 -16 0 -30 4 -30 9 0 14 -93 103 -117 112 -13 5 -20 14 -18 22
3 7 -13 24 -40 41 -33 21 -45 35 -45 52 0 13 -6 24 -13 24 -23 0 -78 65 -71
83 4 12 2 16 -8 12 -8 -3 -25 6 -37 19 -21 22 -22 28 -10 42 11 14 9 19 -16
37 -16 12 -42 28 -59 37 -17 8 -31 22 -31 30 0 9 -10 15 -25 15 -19 0 -26 6
-28 24 -3 20 0 23 15 17 14 -6 15 -4 6 5 -6 6 -9 17 -7 23 3 7 -2 26 -11 42
-8 16 -15 36 -15 45 0 25 -32 113 -47 130 -11 14 -12 18 -1 22 11 4 11 8 0 26
-7 12 -10 30 -7 40 4 15 -1 20 -25 23 -17 3 -33 1 -36 -4z m-1134 -806 c0 -10
-44 -32 -64 -32 -8 0 -17 7 -20 16 -3 8 -2 12 3 9 5 -3 12 -2 15 3 6 11 66 14
66 4z m1545 -62 c-3 -5 -10 -10 -16 -10 -5 0 -9 5 -9 10 0 6 7 10 16 10 8 0
12 -4 9 -10z m-5 -40 c0 -5 -2 -10 -4 -10 -3 0 -8 5 -11 10 -3 6 -1 10 4 10 6
0 11 -4 11 -10z m-20 -55 c0 -8 -4 -15 -10 -15 -5 0 -10 7 -10 15 0 8 5 15 10
15 6 0 10 -7 10 -15z m-522 -63 c2 -7 -2 -10 -12 -6 -9 3 -16 11 -16 16 0 13
23 5 28 -10z"/>
<path d="M680 2565 c0 -8 4 -15 10 -15 5 0 7 7 4 15 -4 8 -8 15 -10 15 -2 0
-4 -7 -4 -15z"/>
<path d="M3375 2540 c-11 -5 -34 -9 -52 -9 -17 -1 -35 -5 -38 -11 -4 -6 -35
-7 -80 -3 -77 6 -96 -3 -52 -25 49 -25 126 -30 230 -14 56 8 131 15 167 14 36
-1 145 -4 243 -8 122 -3 177 -2 177 5 0 12 -12 13 -150 16 -101 3 -187 12
-203 22 -7 4 -50 8 -97 8 -47 1 -94 4 -105 7 -11 4 -29 3 -40 -2z"/>
<path d="M4007 2491 c-10 -12 6 -13 106 -9 155 7 170 23 21 23 -87 0 -119 -3
-127 -14z"/>
<path d="M4406 2502 c-4 -3 -38 -5 -77 -4 -45 2 -68 -1 -64 -8 4 -6 60 -10
143 -9 89 0 126 4 107 9 -48 13 -103 19 -109 12z"/>
<path d="M1424 2465 c-10 -25 4 -45 31 -45 16 0 25 6 25 15 0 8 -4 15 -10 15
-5 0 -10 7 -10 15 0 8 -7 15 -15 15 -9 0 -18 -7 -21 -15z"/>
<path d="M6552 2388 c-19 -19 -14 -32 15 -46 37 -17 51 -1 29 32 -18 29 -27
31 -44 14z"/>
<path d="M6240 2031 c0 -15 6 -21 21 -21 14 0 19 5 17 17 -5 26 -38 29 -38 4z"/>
<path d="M49 1993 c-41 -51 -48 -78 -39 -144 5 -35 7 -89 5 -119 -15 -186 -15
-268 -1 -273 8 -3 20 1 27 9 26 32 47 35 68 12 22 -23 42 -18 23 5 -7 8 -9 16
-7 19 8 7 73 -16 87 -30 17 -17 26 -15 60 13 38 32 103 35 113 5 12 -37 55
-25 102 29 36 41 42 54 45 101 l3 54 -35 7 c-19 4 -42 17 -51 28 -18 22 -39
28 -39 11 0 -17 -20 -11 -54 15 -18 14 -38 25 -44 25 -14 0 -14 0 -17 58 -3
44 -14 67 -22 45 -3 -9 -11 -8 -29 4 -14 9 -23 21 -21 27 7 18 -19 61 -27 47
-12 -19 -36 -12 -36 12 -1 36 -24 57 -62 57 -21 0 -40 -7 -49 -17z m118 -115
c-3 -8 -6 -5 -6 6 -1 11 2 17 5 13 3 -3 4 -12 1 -19z"/>
<path d="M192 1979 c2 -6 8 -10 13 -10 5 0 11 4 13 10 2 6 -4 11 -13 11 -9 0
-15 -5 -13 -11z"/>
<path d="M2296 1964 c-3 -9 -6 -25 -5 -37 0 -19 2 -18 11 6 5 15 14 27 19 27
6 0 7 5 4 10 -9 15 -22 12 -29 -6z"/>
<path d="M2316 1602 c-3 -6 -1 -14 5 -17 15 -10 25 3 12 16 -7 7 -13 7 -17 1z"/>
<path d="M2308 1534 c0 -5 -2 -16 -2 -24 -1 -8 -9 -14 -19 -12 -20 3 -22 -16
-3 -41 12 -15 15 -13 26 28 7 25 10 48 6 52 -3 3 -7 2 -8 -3z"/>
<path d="M5356 1495 c-8 -41 -2 -55 24 -55 19 0 34 -25 24 -41 -3 -5 -12 -9
-20 -9 -20 0 -17 -37 4 -42 9 -3 42 -6 72 -7 53 -2 97 -20 112 -47 5 -6 38
-15 75 -19 38 -4 82 -9 98 -11 48 -6 82 5 89 29 3 12 2 24 -2 27 -5 3 -19 20
-32 39 -19 28 -23 45 -22 99 l2 65 -87 -9 c-134 -13 -290 -11 -305 4 -19 19
-25 15 -32 -23z"/>
<path d="M5340 1368 c0 -62 5 -60 13 5 4 28 3 47 -3 47 -6 0 -10 -23 -10 -52z"/>
<path d="M2231 1324 c0 -11 3 -14 6 -6 3 7 2 16 -1 19 -3 4 -6 -2 -5 -13z"/>
<path d="M2341 1324 c0 -11 3 -14 6 -6 3 7 2 16 -1 19 -3 4 -6 -2 -5 -13z"/>
<path d="M5321 1272 c-6 -10 -15 -77 -21 -148 -10 -114 -11 -228 -7 -614 1
-89 -3 -119 -27 -195 -41 -131 -83 -250 -101 -285 l-16 -30 1441 0 1440 0 0
63 0 64 -37 16 c-21 9 -45 20 -53 25 -45 27 -80 42 -98 42 -11 0 -31 6 -46 14
-28 14 -66 7 -165 -28 -49 -18 -107 -21 -116 -6 -3 6 -14 10 -24 10 -10 0 -48
16 -85 35 -65 35 -70 36 -169 34 -97 -1 -197 -21 -197 -38 0 -4 -17 -15 -37
-24 -75 -31 -95 -34 -150 -18 -44 12 -60 23 -89 61 -39 51 -65 62 -199 80
-115 16 -139 16 -163 4 -16 -8 -34 -9 -54 -3 -34 9 -32 8 -113 84 -77 73 -121
103 -222 154 -45 22 -97 54 -116 71 -19 16 -38 30 -42 30 -4 0 -30 20 -57 45
-28 25 -54 45 -58 45 -4 0 -26 35 -49 78 -22 42 -58 100 -80 127 -22 28 -61
80 -86 117 -25 37 -71 92 -101 122 -29 31 -54 62 -54 71 0 21 -37 19 -49 -3z"/>
<path d="M6480 1239 c0 -5 5 -7 10 -4 6 3 10 8 10 11 0 2 -4 4 -10 4 -5 0 -10
-5 -10 -11z"/>
<path d="M1161 1164 c0 -11 3 -14 6 -6 3 7 2 16 -1 19 -3 4 -6 -2 -5 -13z"/>
</g>
</svg>
